<svg width="25" height="29" viewBox="0 0 25 29" fill="none" xmlns="http://www.w3.org/2000/svg">
<path fill-rule="evenodd" clip-rule="evenodd" d="M2.49851 12.0867V19.4367C2.49851 23.496 5.98867 26.7867 10.294 26.7867C14.5993 26.7867 18.0894 23.496 18.0894 19.4367V12.0867H2.49851ZM0.27124 11.1538C0.27124 10.5093 0.82544 9.98672 1.50901 9.98672H19.0789C19.7625 9.98672 20.3167 10.5093 20.3167 11.1538V19.4367C20.3167 24.6558 15.8294 28.8867 10.294 28.8867C4.75858 28.8867 0.27124 24.6558 0.27124 19.4367V11.1538Z" fill="#F9E24B"/>
<path fill-rule="evenodd" clip-rule="evenodd" d="M18.0894 11.0367C18.0894 10.4568 18.588 9.98672 19.2031 9.98672C22.2783 9.98672 24.7712 12.3372 24.7712 15.2367C24.7712 18.1362 22.2783 20.4867 19.2031 20.4867C18.588 20.4867 18.0894 20.0166 18.0894 19.4367C18.0894 18.8568 18.588 18.3867 19.2031 18.3867C21.0482 18.3867 22.544 16.9764 22.544 15.2367C22.544 13.497 21.0482 12.0867 19.2031 12.0867C18.588 12.0867 18.0894 11.6166 18.0894 11.0367Z" fill="#F9E24B"/>
<path fill-rule="evenodd" clip-rule="evenodd" d="M1.38488 2.98672C1.99992 2.98672 2.49851 3.45682 2.49851 4.03672V6.13672C2.49851 6.71662 1.99992 7.18672 1.38488 7.18672C0.769832 7.18672 0.27124 6.71662 0.27124 6.13672V4.03672C0.27124 3.45682 0.769832 2.98672 1.38488 2.98672Z" fill="#F9E24B"/>
<path fill-rule="evenodd" clip-rule="evenodd" d="M19.2031 2.98672C19.8181 2.98672 20.3167 3.45682 20.3167 4.03672V6.13672C20.3167 6.71662 19.8181 7.18672 19.2031 7.18672C18.588 7.18672 18.0894 6.71662 18.0894 6.13672V4.03672C18.0894 3.45682 18.588 2.98672 19.2031 2.98672Z" fill="#F9E24B"/>
<path fill-rule="evenodd" clip-rule="evenodd" d="M10.294 0.886719C10.909 0.886719 11.4076 1.35682 11.4076 1.93672V6.13672C11.4076 6.71662 10.909 7.18672 10.294 7.18672C9.67892 7.18672 9.18033 6.71662 9.18033 6.13672V1.93672C9.18033 1.35682 9.67892 0.886719 10.294 0.886719Z" fill="#F9E24B"/>
</svg>
