<svg width="977" height="275" viewBox="0 0 977 275" fill="none" xmlns="http://www.w3.org/2000/svg">
<path d="M137.12 64.3846V176.705H109.76V109.345L84.64 176.705H62.56L37.28 109.185V176.705H9.92V64.3846H42.24L73.76 142.145L104.96 64.3846H137.12ZM199.035 177.985C190.288 177.985 182.395 176.118 175.355 172.385C168.422 168.651 162.928 163.318 158.875 156.385C154.928 149.451 152.955 141.345 152.955 132.065C152.955 122.891 154.982 114.838 159.035 107.905C163.088 100.865 168.635 95.4779 175.675 91.7446C182.715 88.0113 190.608 86.1446 199.355 86.1446C208.102 86.1446 215.995 88.0113 223.035 91.7446C230.075 95.4779 235.622 100.865 239.675 107.905C243.728 114.838 245.755 122.891 245.755 132.065C245.755 141.238 243.675 149.345 239.515 156.385C235.462 163.318 229.862 168.651 222.715 172.385C215.675 176.118 207.782 177.985 199.035 177.985ZM199.035 154.305C204.262 154.305 208.688 152.385 212.315 148.545C216.048 144.705 217.915 139.211 217.915 132.065C217.915 124.918 216.102 119.425 212.475 115.585C208.955 111.745 204.582 109.825 199.355 109.825C194.022 109.825 189.595 111.745 186.075 115.585C182.555 119.318 180.795 124.811 180.795 132.065C180.795 139.211 182.502 144.705 185.915 148.545C189.435 152.385 193.808 154.305 199.035 154.305ZM302.51 177.985C293.763 177.985 285.87 176.118 278.83 172.385C271.897 168.651 266.403 163.318 262.35 156.385C258.403 149.451 256.43 141.345 256.43 132.065C256.43 122.891 258.457 114.838 262.51 107.905C266.563 100.865 272.11 95.4779 279.15 91.7446C286.19 88.0113 294.083 86.1446 302.83 86.1446C311.577 86.1446 319.47 88.0113 326.51 91.7446C333.55 95.4779 339.097 100.865 343.15 107.905C347.203 114.838 349.23 122.891 349.23 132.065C349.23 141.238 347.15 149.345 342.99 156.385C338.937 163.318 333.337 168.651 326.19 172.385C319.15 176.118 311.257 177.985 302.51 177.985ZM302.51 154.305C307.737 154.305 312.163 152.385 315.79 148.545C319.523 144.705 321.39 139.211 321.39 132.065C321.39 124.918 319.577 119.425 315.95 115.585C312.43 111.745 308.057 109.825 302.83 109.825C297.497 109.825 293.07 111.745 289.55 115.585C286.03 119.318 284.27 124.811 284.27 132.065C284.27 139.211 285.977 144.705 289.39 148.545C292.91 152.385 297.283 154.305 302.51 154.305ZM359.905 131.905C359.905 122.731 361.612 114.678 365.025 107.745C368.545 100.811 373.292 95.4779 379.265 91.7446C385.238 88.0113 391.905 86.1446 399.265 86.1446C405.132 86.1446 410.465 87.3712 415.265 89.8246C420.172 92.2779 424.012 95.5846 426.785 99.7446V58.3046H454.145V176.705H426.785V163.905C424.225 168.171 420.545 171.585 415.745 174.145C411.052 176.705 405.558 177.985 399.265 177.985C391.905 177.985 385.238 176.118 379.265 172.385C373.292 168.545 368.545 163.158 365.025 156.225C361.612 149.185 359.905 141.078 359.905 131.905ZM426.785 132.065C426.785 125.238 424.865 119.851 421.025 115.905C417.292 111.958 412.705 109.985 407.265 109.985C401.825 109.985 397.185 111.958 393.345 115.905C389.612 119.745 387.745 125.078 387.745 131.905C387.745 138.731 389.612 144.171 393.345 148.225C397.185 152.171 401.825 154.145 407.265 154.145C412.705 154.145 417.292 152.171 421.025 148.225C424.865 144.278 426.785 138.891 426.785 132.065Z" fill="#FAFAFA"/>
<path d="M516.179 177.825C507.965 177.825 500.605 176.491 494.099 173.825C487.592 171.158 482.365 167.211 478.419 161.985C474.579 156.758 472.552 150.465 472.339 143.105H501.459C501.885 147.265 503.325 150.465 505.779 152.705C508.232 154.838 511.432 155.905 515.379 155.905C519.432 155.905 522.632 154.998 524.979 153.185C527.325 151.265 528.499 148.651 528.499 145.345C528.499 142.571 527.539 140.278 525.619 138.465C523.805 136.651 521.512 135.158 518.739 133.985C516.072 132.811 512.232 131.478 507.219 129.985C499.965 127.745 494.045 125.505 489.459 123.265C484.872 121.025 480.925 117.718 477.619 113.345C474.312 108.971 472.659 103.265 472.659 96.2246C472.659 85.7713 476.445 77.6113 484.019 71.7446C491.592 65.7713 501.459 62.7846 513.619 62.7846C525.992 62.7846 535.965 65.7713 543.539 71.7446C551.112 77.6113 555.165 85.8246 555.699 96.3846H526.099C525.885 92.7579 524.552 89.9313 522.099 87.9046C519.645 85.7713 516.499 84.7046 512.659 84.7046C509.352 84.7046 506.685 85.6112 504.659 87.4246C502.632 89.1312 501.619 91.6379 501.619 94.9446C501.619 98.5713 503.325 101.398 506.739 103.425C510.152 105.451 515.485 107.638 522.739 109.985C529.992 112.438 535.859 114.785 540.339 117.025C544.925 119.265 548.872 122.518 552.179 126.785C555.485 131.051 557.139 136.545 557.139 143.265C557.139 149.665 555.485 155.478 552.179 160.705C548.979 165.931 544.285 170.091 538.099 173.185C531.912 176.278 524.605 177.825 516.179 177.825ZM659.736 130.625C659.736 133.185 659.576 135.851 659.256 138.625H597.336C597.763 144.171 599.523 148.438 602.616 151.425C605.816 154.305 609.71 155.745 614.296 155.745C621.123 155.745 625.87 152.865 628.536 147.105H657.656C656.163 152.971 653.443 158.251 649.496 162.945C645.656 167.638 640.803 171.318 634.936 173.985C629.07 176.651 622.51 177.985 615.256 177.985C606.51 177.985 598.723 176.118 591.896 172.385C585.07 168.651 579.736 163.318 575.896 156.385C572.056 149.451 570.136 141.345 570.136 132.065C570.136 122.785 572.003 114.678 575.736 107.745C579.576 100.811 584.91 95.4779 591.736 91.7446C598.563 88.0113 606.403 86.1446 615.256 86.1446C623.896 86.1446 631.576 87.9579 638.296 91.5846C645.016 95.2113 650.243 100.385 653.976 107.105C657.816 113.825 659.736 121.665 659.736 130.625ZM631.736 123.425C631.736 118.731 630.136 114.998 626.936 112.225C623.736 109.451 619.736 108.065 614.936 108.065C610.35 108.065 606.456 109.398 603.256 112.065C600.163 114.731 598.243 118.518 597.496 123.425H631.736ZM730.17 86.4646C740.623 86.4646 748.943 89.8779 755.13 96.7046C761.423 103.425 764.57 112.705 764.57 124.545V176.705H737.37V128.225C737.37 122.251 735.823 117.611 732.73 114.305C729.637 110.998 725.477 109.345 720.25 109.345C715.023 109.345 710.863 110.998 707.77 114.305C704.677 117.611 703.13 122.251 703.13 128.225V176.705H675.77V87.4246H703.13V99.2646C705.903 95.3179 709.637 92.2246 714.33 89.9846C719.023 87.6379 724.303 86.4646 730.17 86.4646ZM821.503 177.985C813.716 177.985 806.783 176.651 800.703 173.985C794.623 171.318 789.823 167.691 786.303 163.105C782.783 158.411 780.809 153.185 780.383 147.425H807.423C807.743 150.518 809.183 153.025 811.743 154.945C814.303 156.865 817.449 157.825 821.183 157.825C824.596 157.825 827.209 157.185 829.023 155.905C830.943 154.518 831.903 152.758 831.903 150.625C831.903 148.065 830.569 146.198 827.903 145.025C825.236 143.745 820.916 142.358 814.943 140.865C808.543 139.371 803.209 137.825 798.943 136.225C794.676 134.518 790.996 131.905 787.903 128.385C784.809 124.758 783.263 119.905 783.263 113.825C783.263 108.705 784.649 104.065 787.423 99.9046C790.303 95.6379 794.463 92.2779 799.903 89.8246C805.449 87.3712 812.009 86.1446 819.583 86.1446C830.783 86.1446 839.583 88.9179 845.983 94.4646C852.489 100.011 856.223 107.371 857.183 116.545H831.903C831.476 113.451 830.089 110.998 827.743 109.185C825.503 107.371 822.516 106.465 818.783 106.465C815.583 106.465 813.129 107.105 811.423 108.385C809.716 109.558 808.863 111.211 808.863 113.345C808.863 115.905 810.196 117.825 812.863 119.105C815.636 120.385 819.903 121.665 825.663 122.945C832.276 124.651 837.663 126.358 841.823 128.065C845.983 129.665 849.609 132.331 852.703 136.065C855.903 139.691 857.556 144.598 857.663 150.785C857.663 156.011 856.169 160.705 853.183 164.865C850.303 168.918 846.089 172.118 840.543 174.465C835.103 176.811 828.756 177.985 821.503 177.985ZM960.161 130.625C960.161 133.185 960.001 135.851 959.681 138.625H897.761C898.188 144.171 899.948 148.438 903.041 151.425C906.241 154.305 910.135 155.745 914.721 155.745C921.548 155.745 926.295 152.865 928.961 147.105H958.081C956.588 152.971 953.868 158.251 949.921 162.945C946.081 167.638 941.228 171.318 935.361 173.985C929.495 176.651 922.935 177.985 915.681 177.985C906.935 177.985 899.148 176.118 892.321 172.385C885.495 168.651 880.161 163.318 876.321 156.385C872.481 149.451 870.561 141.345 870.561 132.065C870.561 122.785 872.428 114.678 876.161 107.745C880.001 100.811 885.335 95.4779 892.161 91.7446C898.988 88.0113 906.828 86.1446 915.681 86.1446C924.321 86.1446 932.001 87.9579 938.721 91.5846C945.441 95.2113 950.668 100.385 954.401 107.105C958.241 113.825 960.161 121.665 960.161 130.625ZM932.161 123.425C932.161 118.731 930.561 114.998 927.361 112.225C924.161 109.451 920.161 108.065 915.361 108.065C910.775 108.065 906.881 109.398 903.681 112.065C900.588 114.731 898.668 118.518 897.921 123.425H932.161Z" fill="#482F24"/>
<path d="M152.878 201.351V195.351C149.564 195.351 146.878 198.038 146.878 201.351H152.878ZM266.059 201.351V207.351H273.211L271.967 200.308L266.059 201.351ZM265.001 184.968L270.904 186.042C271.494 182.802 269.362 179.692 266.127 179.074C262.892 178.456 259.764 180.561 259.118 183.79L265.001 184.968ZM294.619 227.777L294.076 233.752C297.245 234.04 300.088 231.803 300.554 228.655C301.02 225.507 298.947 222.543 295.83 221.9L294.619 227.777ZM222.69 269L222.69 263L222.69 269ZM152.878 207.351H266.059V195.351H152.878V207.351ZM271.967 200.308C271.688 198.727 271.204 196.187 270.9 193.374C270.585 190.45 270.542 187.854 270.884 186.145L259.118 183.79C258.402 187.366 258.624 191.465 258.97 194.663C259.327 197.972 259.901 200.981 260.15 202.395L271.967 200.308ZM259.098 183.894C258.095 189.404 258.594 198.007 261.587 206.443C264.622 214.994 270.465 224.026 280.732 229.394L286.292 218.76C279.44 215.178 275.234 209.016 272.896 202.429C270.518 195.728 270.32 189.252 270.904 186.042L259.098 183.894ZM280.732 229.394C284.435 231.33 289.05 232.755 293.407 233.653L295.83 221.9C292.135 221.138 288.681 220.009 286.292 218.76L280.732 229.394ZM295.161 221.801C294.634 221.753 293.225 221.54 291.512 221.049C289.792 220.557 288.077 219.873 286.741 219.02L280.283 229.134C285.392 232.396 291.712 233.537 294.076 233.752L295.161 221.801ZM277.886 221.991C275.538 228.324 269.687 238.745 260.311 247.503C251.018 256.183 238.534 263 222.69 263V275C242.282 275 257.564 266.489 268.502 256.273C279.355 246.136 286.197 234.096 289.138 226.163L277.886 221.991ZM222.69 263C208.932 263 192.883 259.726 180.433 250.559C168.288 241.616 158.878 226.573 158.878 201.351H146.878C146.878 230.037 157.83 248.818 173.318 260.222C188.503 271.403 207.36 275 222.69 275L222.69 263Z" fill="#482F24"/>
</svg>
